<?xml version="1.0" encoding="utf-8"?>
<!-- Generator: Adobe Illustrator 17.0.0, SVG Export Plug-In . SVG Version: 6.00 Build 0)  -->
<!DOCTYPE svg PUBLIC "-//W3C//DTD SVG 1.1//EN" "http://www.w3.org/Graphics/SVG/1.1/DTD/svg11.dtd">
<svg version="1.1" id="Capa_1" xmlns="http://www.w3.org/2000/svg" xmlns:xlink="http://www.w3.org/1999/xlink" x="0px" y="0px"
	 width="94.495px" height="94.495px" viewBox="0 0 94.495 94.495" enable-background="new 0 0 94.495 94.495" xml:space="preserve">
<path fill="#FFFFFF" d="M77.383,56.126c0,2.026-1.648,3.675-3.674,3.675h-9.336c-3.347,0-6.07-2.723-6.07-6.07
	c0-3.346,2.723-6.069,6.07-6.069h9.336c2.026,0,3.674,1.648,3.674,3.674V56.126z"/>
<g>
	<path fill="#F8B133" d="M44.882,82.738c-6.51,0-11.807-5.296-11.807-11.807c0-6.511,5.296-11.807,11.807-11.807
		c6.511,0,11.807,5.296,11.807,11.807C56.689,77.442,51.393,82.738,44.882,82.738L44.882,82.738z"/>
	<polygon fill="#FFFFFF" points="37.286,35.47 20.374,35.47 20.374,13.217 47.374,13.217 47.374,21.821 	"/>
	<g>
		<g>
			<path d="M57.923,16.497c-0.246-0.173-0.554-0.234-0.847-0.168c-0.293,0.066-0.545,0.252-0.695,0.513
				c-0.007,0.013-0.016,0.025-0.024,0.036c-0.343,0.49-1.021,0.609-1.511,0.267c-0.484-0.339-1.151-0.222-1.49,0.262l-1.559,2.227
				c-0.339,0.484-0.221,1.151,0.262,1.49c0.187,0.131,0.401,0.194,0.613,0.194c0.337,0,0.669-0.159,0.877-0.456l1.05-1.5
				c0.986,0.275,2.057,0.063,2.865-0.573l1.578,1.105c0.484,0.339,1.15,0.221,1.49-0.262c0.339-0.484,0.221-1.151-0.263-1.49
				L57.923,16.497z M57.923,16.497"/>
			<path d="M69.751,29.97l-1.05,1.5c-0.339,0.484-0.221,1.151,0.262,1.49c0.187,0.131,0.401,0.193,0.613,0.193
				c0.337,0,0.669-0.159,0.877-0.456l1.559-2.226c0.339-0.484,0.221-1.151-0.262-1.49c-0.49-0.343-0.61-1.021-0.266-1.512
				c0.008-0.012,0.016-0.023,0.026-0.034c0.194-0.23,0.283-0.53,0.243-0.828c-0.038-0.298-0.201-0.567-0.447-0.739l-2.346-1.643
				c-0.484-0.339-1.151-0.221-1.49,0.263c-0.339,0.484-0.221,1.151,0.262,1.49l1.578,1.104
				C68.987,28.059,69.155,29.137,69.751,29.97L69.751,29.97z M69.751,29.97"/>
			<path d="M64.075,53.999c0.508,0,0.98,0.203,1.329,0.573c0.406,0.429,1.082,0.449,1.512,0.043c0.43-0.406,0.449-1.082,0.043-1.512
				c-0.746-0.79-1.797-1.243-2.884-1.243c-2.187,0-3.966,1.779-3.966,3.966c0,2.186,1.779,3.966,3.966,3.966
				c1.06,0,2.056-0.412,2.804-1.162c0.418-0.418,0.418-1.095,0-1.512c-0.417-0.418-1.095-0.418-1.512,0
				c-0.345,0.345-0.804,0.535-1.292,0.535c-1.007,0-1.827-0.819-1.827-1.827C62.248,54.818,63.068,53.999,64.075,53.999
				L64.075,53.999z M64.075,53.999"/>
			<path d="M73.598,48.292v-8.566c0-2.908-2.366-5.275-5.275-5.275h-5.676c0.332-2.868-0.605-5.39-2.58-6.773
				c-1.673-1.172-3.842-1.382-6.105-0.592c-2.14,0.747-4.13,2.317-5.603,4.42c-0.652,0.931-1.171,1.918-1.548,2.945h-6.963
				l14.967-21.375l20.769,14.542l-3.164,4.519c-0.339,0.484-0.221,1.151,0.262,1.49c0.484,0.339,1.151,0.221,1.49-0.263l3.449-4.926
				c0.52-0.74,0.34-1.766-0.402-2.286L55.635,11.038c-0.359-0.252-0.794-0.349-1.226-0.273c-0.432,0.076-0.808,0.315-1.06,0.675
				l-4.951,7.071v-4.264c0-0.905-0.736-1.642-1.642-1.642H21.102c-0.905,0-1.642,0.736-1.642,1.642v5.855
				c0,0.591,0.479,1.07,1.07,1.07c0.591,0,1.07-0.478,1.07-1.07v-5.357h3.099V34.45h-2.847c-0.084,0-0.168,0.002-0.252,0.006V24.38
				c0-0.59-0.479-1.07-1.07-1.07c-0.591,0-1.07,0.479-1.07,1.07v10.644c-1.71,0.873-2.883,2.653-2.883,4.701v32.201
				c0,2.908,2.366,5.275,5.275,5.275h7.986c0.591,0,1.07-0.478,1.07-1.07c0-0.591-0.478-1.07-1.07-1.07h-7.986
				c-1.729,0-3.136-1.407-3.136-3.136V39.725c0-1.37,0.883-2.538,2.11-2.964c0.027-0.008,0.055-0.017,0.081-0.027
				c0.299-0.095,0.616-0.146,0.945-0.146h46.47c1.729,0,3.136,1.407,3.136,3.136v8.418h-7.657c-4.236,0-7.682,3.446-7.682,7.682
				c0,4.236,3.447,7.682,7.682,7.682h7.657v8.418c0,1.729-1.407,3.136-3.136,3.136H60.15c-0.591,0-1.07,0.479-1.07,1.07
				c0,0.591,0.478,1.07,1.07,1.07h8.173c2.908,0,5.275-2.366,5.275-5.275v-8.567c2.42-0.574,4.225-2.753,4.225-5.346v-4.375
				C77.823,51.045,76.018,48.866,73.598,48.292L73.598,48.292z M50.111,32.733c2.439-3.484,6.355-4.966,8.73-3.304
				c1.368,0.958,1.97,2.836,1.65,5.02H49.123C49.394,33.859,49.724,33.285,50.111,32.733L50.111,32.733z M46.259,21.565
				L37.237,34.45h-5.27V14.744h14.293V21.565z M26.838,14.744h2.989V34.45h-2.989V14.744z M75.684,58.013
				c0,1.851-1.505,3.356-3.356,3.356h-8.526c-3.057,0-5.543-2.487-5.543-5.543c0-3.056,2.487-5.543,5.543-5.543h8.526
				c1.85,0,3.356,1.505,3.356,3.356V58.013z M75.684,58.013"/>
			<path d="M45.087,57.911c-7.125,0-12.922,5.797-12.922,12.922c0,7.125,5.797,12.922,12.922,12.922
				c7.125,0,12.922-5.797,12.922-12.922C58.009,63.708,52.213,57.911,45.087,57.911L45.087,57.911z M45.087,81.616
				c-5.945,0-10.782-4.837-10.782-10.782c0-5.946,4.837-10.783,10.782-10.783c5.946,0,10.783,4.837,10.783,10.783
				C55.87,76.779,51.033,81.616,45.087,81.616L45.087,81.616z M45.087,81.616"/>
			<path d="M46,69.764h-1.824c-0.537,0-0.975-0.437-0.975-0.975c0-0.538,0.437-0.975,0.975-0.975h3.491
				c0.591,0,1.07-0.479,1.07-1.07c0-0.591-0.479-1.07-1.07-1.07h-1.313v-0.904c0-0.591-0.479-1.07-1.07-1.07s-1.07,0.479-1.07,1.07
				v0.904h-0.039c-1.717,0-3.114,1.397-3.114,3.114s1.397,3.114,3.114,3.114H46c0.538,0,0.974,0.437,0.974,0.974
				c0,0.537-0.437,0.975-0.974,0.975h-3.491c-0.591,0-1.07,0.479-1.07,1.07c0,0.59,0.478,1.07,1.07,1.07h1.706v0.904
				c0,0.591,0.479,1.07,1.07,1.07c0.591,0,1.07-0.479,1.07-1.07v-0.924c1.551-0.177,2.76-1.496,2.76-3.094
				C49.113,71.161,47.717,69.764,46,69.764L46,69.764z M46,69.764"/>
		</g>
	</g>
</g>
</svg>
