<?xml version="1.0" encoding="utf-8"?>
<!-- Generator: Adobe Illustrator 17.0.0, SVG Export Plug-In . SVG Version: 6.00 Build 0)  -->
<!DOCTYPE svg PUBLIC "-//W3C//DTD SVG 1.1//EN" "http://www.w3.org/Graphics/SVG/1.1/DTD/svg11.dtd">
<svg version="1.1" id="Capa_1" xmlns="http://www.w3.org/2000/svg" xmlns:xlink="http://www.w3.org/1999/xlink" x="0px" y="0px"
	 width="94.495px" height="94.495px" viewBox="0 0 94.495 94.495" enable-background="new 0 0 94.495 94.495" xml:space="preserve">
<g>
	<path fill="#F8B133" d="M31.383,16.701v12.956l2.466,1.691l2.465-1.691l2.466,1.691l2.466-1.691l2.466,1.691l2.466-1.691V16.701
		H31.383z M31.383,16.701"/>
	<path fill="#C21D44" d="M46.179,26.096"/>
	<path fill="#E8AB4C" d="M15.521,66.317"/>
	<rect x="18.708" y="46.218" fill="#F8B133" width="10.552" height="6.346"/>
	<path fill="#CAD8EB" d="M21.873,49.399"/>
	<g>
		<defs>
			<rect id="SVGID_243_" x="11.306" y="15.425" width="71.882" height="63.646"/>
		</defs>
		<clipPath id="SVGID_2_">
			<use xlink:href="#SVGID_243_"  overflow="visible"/>
		</clipPath>
		<path clip-path="url(#SVGID_2_)" fill="#FFFFFF" d="M74.706,52.028l-2.114-0.877c-1.319-0.423-2.726-0.65-4.186-0.65
			c-18.101,0.458-18.101,26.995,0,27.452C82.771,77.92,87.282,58.485,74.706,52.028L74.706,52.028z M74.706,52.028"/>
	</g>
	<path fill="#68CBB8" d="M70.673,75.685"/>
	<path fill="#FFFFFF" d="M61.77,58.912l-1.654-1.316c0.489-0.614,1.047-1.173,1.661-1.661l1.316,1.654
		C62.604,57.978,62.159,58.423,61.77,58.912L61.77,58.912z M61.77,58.912"/>
	<path fill="#FFFFFF" d="M64.683,56.58l-0.935-1.896c0.686-0.339,1.43-0.604,2.21-0.789l0.488,2.057
		C65.819,56.101,65.226,56.312,64.683,56.58L64.683,56.58z M64.683,56.58"/>
	<path d="M13.42,32.481h-2.114v38.053l31.691,0.015l0.001-2.114L13.42,68.42V32.481z M13.42,32.481"/>
	<rect x="45.112" y="68.436" width="2.114" height="2.114"/>
	<path d="M17.651,53.621h12.665v-8.46H17.651V53.621z M19.765,47.275h8.438v4.232h-8.438V47.275z M19.765,47.275"/>
	<rect x="17.643" y="55.746" width="6.342" height="2.114"/>
	<g>
		<defs>
			<rect id="SVGID_245_" x="11.306" y="15.425" width="71.882" height="63.646"/>
		</defs>
		<clipPath id="SVGID_4_">
			<use xlink:href="#SVGID_245_"  overflow="visible"/>
		</clipPath>
		<rect x="17.643" y="59.968" clip-path="url(#SVGID_4_)" width="12.683" height="2.114"/>
		<path clip-path="url(#SVGID_4_)" d="M75.192,51.089l-0.972,1.877c11.682,5.938,7.297,23.997-5.815,23.928
			c-6.985,0.001-12.668-5.683-12.668-12.668c-0.14-8.43,8.563-14.749,16.533-12.069l0.644-2.013
			c-2.121-0.683-4.448-0.871-6.655-0.544V15.601l-54.953-0.026v14.792h2.114V17.689l16.906,0.008v12.464l3.523,2.416l2.465-1.691
			l2.466,1.691l2.466-1.691l2.466,1.691l3.523-2.416V17.706l16.91,0.008v32.356c-7.504,2.09-12.343,10.703-9.91,18.37l-4.895-0.002
			L49.34,70.55l5.709,0.003c6.64,14.023,28.07,9.406,28.14-6.328C83.189,58.676,80.125,53.642,75.192,51.089L75.192,51.089z
			 M45.122,29.047l-1.409,0.967l-2.466-1.691l-2.466,1.691l-2.466-1.691l-2.465,1.691l-1.409-0.967V17.699l12.682,0.006V29.047z
			 M45.122,29.047"/>
	</g>
	<path d="M77.619,59.689l-1.495-1.495l-9.822,9.822l-3.867-3.867l-1.495,1.495l5.361,5.361L77.619,59.689z M77.619,59.689"/>
</g>
</svg>
