<?xml version="1.0" encoding="utf-8"?>
<!-- Generator: Adobe Illustrator 17.0.0, SVG Export Plug-In . SVG Version: 6.00 Build 0)  -->
<!DOCTYPE svg PUBLIC "-//W3C//DTD SVG 1.1//EN" "http://www.w3.org/Graphics/SVG/1.1/DTD/svg11.dtd">
<svg version="1.1" id="Capa_1" xmlns="http://www.w3.org/2000/svg" xmlns:xlink="http://www.w3.org/1999/xlink" x="0px" y="0px"
	 width="94.495px" height="94.495px" viewBox="0 0 94.495 94.495" enable-background="new 0 0 94.495 94.495" xml:space="preserve">
<g>
	<path fill="#F8B133" d="M64.45,39.984c0,2.686-2.186,4.872-4.872,4.872c-2.686,0-4.872-2.185-4.872-4.872v-3.058
		c0-0.042-0.002-0.084-0.006-0.126l-1.084-10.681h7.488l3.347,10.992V39.984z"/>
	<path fill="#F8B133" d="M39.99,36.926v3.058c0,2.686-2.185,4.872-4.872,4.872s-4.872-2.185-4.872-4.872v-2.873l3.347-10.992h7.488
		l-1.084,10.681C39.992,36.842,39.99,36.884,39.99,36.926z"/>
	<g>
		<path d="M78.93,36.364l-5.98-11.785v-4.674c0-0.686-0.556-1.243-1.243-1.243H22.788c-0.686,0-1.243,0.557-1.243,1.243v4.675
			l-5.98,11.785c-0.088,0.174-0.134,0.367-0.134,0.562v3.058c0,3.633,2.648,6.658,6.115,7.251v26.113h-1.272
			c-0.686,0-1.243,0.557-1.243,1.243s0.556,1.243,1.243,1.243h2.505c0.003,0,0.006,0,0.01,0h34.005h9.943h4.971h2.515
			c0.686,0,1.243-0.557,1.243-1.243c0-0.686-0.557-1.243-1.243-1.243H72.95V47.234c3.467-0.593,6.115-3.617,6.115-7.251v-3.058
			C79.065,36.731,79.019,36.538,78.93,36.364z M24.031,21.147h46.433v2.486h-8.541H52.14h-9.784h-9.784h-8.541V21.147z
			 M64.349,39.984c0,2.686-2.186,4.872-4.872,4.872c-2.686,0-4.872-2.185-4.872-4.872v-3.058c0-0.042-0.002-0.084-0.006-0.126
			l-1.084-10.681h7.488l3.347,10.992V39.984z M52.119,39.984c0,2.686-2.185,4.872-4.872,4.872c-2.686,0-4.872-2.185-4.872-4.872
			v-2.995l1.103-10.87h7.537l1.103,10.87L52.119,39.984L52.119,39.984z M39.89,36.926v3.058c0,2.686-2.185,4.872-4.872,4.872
			s-4.872-2.185-4.872-4.872v-2.873l3.347-10.992h7.488l-1.084,10.681C39.892,36.842,39.89,36.884,39.89,36.926z M17.916,39.984
			v-2.76l5.635-11.104h7.343l-3.18,10.445c-0.036,0.117-0.054,0.239-0.054,0.362v3.058c0,2.686-2.186,4.872-4.872,4.872
			C20.102,44.855,17.916,42.67,17.916,39.984z M24.031,47.234c2.025-0.346,3.771-1.521,4.872-3.164
			c1.321,1.971,3.569,3.271,6.115,3.271c2.546,0,4.793-1.3,6.115-3.271c1.322,1.971,3.569,3.271,6.115,3.271
			c2.546,0,4.793-1.3,6.115-3.271c1.322,1.971,3.569,3.271,6.115,3.271s4.793-1.3,6.115-3.271c1.101,1.643,2.847,2.818,4.872,3.164
			v26.114h-2.486V52.219c0-0.686-0.556-1.243-1.243-1.243h-9.943H27.76c-0.687,0-1.243,0.557-1.243,1.243v17.4
			c0,0.686,0.556,1.243,1.243,1.243h27.79v2.486H24.031V47.234z M29.002,65.584l12.122-12.122h4.33l-2.363,2.363
			c-0.485,0.485-0.485,1.272,0,1.758c0.243,0.243,0.561,0.364,0.879,0.364c0.318,0,0.636-0.121,0.879-0.364l4.121-4.121h6.58v14.914
			H29.002V65.584z M29.002,62.068v-8.606h8.606L29.002,62.068z M58.036,73.348v-3.729v-4.971h1.243c0.686,0,1.243-0.556,1.243-1.243
			c0-0.686-0.556-1.243-1.243-1.243h-1.243v-8.7h7.457v19.886H58.036z M76.579,39.984c0,2.686-2.186,4.872-4.872,4.872
			c-2.686,0-4.872-2.185-4.872-4.872v-3.058c0-0.123-0.018-0.245-0.054-0.362l-3.18-10.445h7.343l5.635,11.104V39.984z"/>
		<path d="M40.569,58.348l-0.021,0.021c-0.487,0.484-0.489,1.271-0.005,1.758c0.243,0.244,0.562,0.367,0.881,0.367
			c0.317,0,0.634-0.12,0.876-0.361l0.021-0.021c0.487-0.484,0.489-1.271,0.005-1.758C41.842,57.866,41.055,57.864,40.569,58.348z"/>
		<path d="M16.703,73.347h-0.029c-0.686,0-1.243,0.557-1.243,1.243s0.556,1.243,1.243,1.243h0.029c0.686,0,1.243-0.557,1.243-1.243
			S17.389,73.347,16.703,73.347z"/>
		<path d="M77.822,73.348h-0.029c-0.686,0-1.243,0.557-1.243,1.243c0,0.686,0.556,1.243,1.243,1.243h0.029
			c0.686,0,1.243-0.557,1.243-1.243C79.065,73.904,78.508,73.348,77.822,73.348z"/>
	</g>
</g>
</svg>
