<?xml version="1.0" encoding="utf-8"?>
<!-- Generator: Adobe Illustrator 17.0.0, SVG Export Plug-In . SVG Version: 6.00 Build 0)  -->
<!DOCTYPE svg PUBLIC "-//W3C//DTD SVG 1.1//EN" "http://www.w3.org/Graphics/SVG/1.1/DTD/svg11.dtd">
<svg version="1.1" id="Capa_1" xmlns="http://www.w3.org/2000/svg" xmlns:xlink="http://www.w3.org/1999/xlink" x="0px" y="0px"
	 width="94.495px" height="94.495px" viewBox="0 0 94.495 94.495" enable-background="new 0 0 94.495 94.495" xml:space="preserve">
<g>
	<path fill-rule="evenodd" clip-rule="evenodd" fill="#FFFFFF" d="M47.348,23.072c13.199,0,23.896,10.697,23.896,23.896
		S60.546,70.864,47.348,70.864c-4.023,0-7.95-0.995-11.477-2.932l-1.658-0.91l-8.91,2.408l2.429-8.669l-1.01-1.721
		c-2.155-3.672-3.27-7.815-3.27-12.072C23.451,33.77,34.149,23.072,47.348,23.072L47.348,23.072z M33.612,72.047
		c4.076,2.238,8.757,3.511,13.736,3.511c15.79,0,28.59-12.8,28.59-28.59c0-15.79-12.8-28.59-28.59-28.59
		c-15.79,0-28.591,12.8-28.591,28.59c0,5.271,1.428,10.208,3.916,14.448l-4.119,14.701L33.612,72.047z M33.612,72.047"/>
	<path fill-rule="evenodd" clip-rule="evenodd" fill="#F8B133" d="M71.243,46.968c0-13.199-10.697-23.896-23.896-23.896
		c-13.199,0-23.896,10.697-23.896,23.896c0,4.257,1.116,8.4,3.271,12.072l1.01,1.721l-2.429,8.669l8.91-2.408l1.658,0.91
		c3.527,1.936,7.454,2.932,11.477,2.932C60.546,70.864,71.243,60.167,71.243,46.968L71.243,46.968z M40.53,45.749
		c1.075,1.862,2.952,3.955,4.686,5.298c2.096,1.622,5.382,3.754,6.451,2.809c0.504-0.446,1.892-2.457,2.077-2.6
		c0.185-0.144,0.801-1.172,2.255-0.468c1.453,0.705,5.079,2.504,5.079,2.504s0.786,0.317,0.752,1.549
		c-0.033,1.231-0.087,1.546-0.087,1.546s-0.527,4.222-6.289,4.39c-2.608,0.076-5.629-0.987-8.305-2.353
		c-4.568-2.329-7.421-4.904-10.473-8.908c-2.072-2.719-4.142-6.291-3.776-9.467c0.635-5.51,4.139-6.018,4.139-6.018
		s0.317-0.038,1.549-0.013c1.231,0.025,1.51,0.825,1.51,0.825s1.701,3.885,2.336,5.37c0.635,1.485-0.051,2.133-0.203,2.311
		c-0.152,0.178-1.066,1.257-1.536,1.739C40.225,44.747,40.337,45.415,40.53,45.749L40.53,45.749z M40.53,45.749"/>
	<g>
		<defs>
			<rect id="SVGID_249_" x="17.38" y="17.204" width="59.734" height="60.086"/>
		</defs>
		<clipPath id="SVGID_2_">
			<use xlink:href="#SVGID_249_"  overflow="visible"/>
		</clipPath>
		<path clip-path="url(#SVGID_2_)" fill-rule="evenodd" clip-rule="evenodd" fill="#FFFFFF" d="M42.434,40.214
			c-0.634-1.485-2.336-5.37-2.336-5.37s-0.279-0.8-1.511-0.825c-1.231-0.025-1.549,0.013-1.549,0.013s-3.504,0.508-4.139,6.018
			c-0.366,3.176,1.704,6.748,3.776,9.467c3.052,4.004,5.905,6.579,10.473,8.908c2.677,1.365,5.697,2.429,8.306,2.353
			c5.762-0.168,6.289-4.39,6.289-4.39s0.053-0.315,0.087-1.547c0.033-1.231-0.752-1.548-0.752-1.548s-3.626-1.799-5.08-2.504
			c-1.453-0.705-2.069,0.324-2.254,0.467c-0.185,0.144-1.573,2.155-2.077,2.601c-1.068,0.945-4.355-1.186-6.451-2.809
			c-1.734-1.343-3.611-3.436-4.686-5.298c-0.193-0.334-0.305-1.003,0.165-1.486c0.47-0.482,1.384-1.561,1.536-1.739
			C42.384,42.347,43.069,41.7,42.434,40.214L42.434,40.214z M42.434,40.214"/>
		<path clip-path="url(#SVGID_2_)" d="M68.394,25.922c-5.622-5.621-13.096-8.717-21.046-8.717c-6.253,0-12.238,1.918-17.307,5.547
			c-0.527,0.377-0.649,1.11-0.271,1.637c0.378,0.527,1.111,0.648,1.638,0.271c4.669-3.342,10.181-5.109,15.941-5.109
			c15.117,0,27.416,12.299,27.416,27.417c0,15.117-12.299,27.416-27.416,27.416c-4.605,0-9.16-1.164-13.171-3.366
			c-0.266-0.146-0.579-0.183-0.871-0.104l-13.064,3.531l3.562-12.712c0.086-0.307,0.044-0.636-0.118-0.91
			c-2.457-4.186-3.755-8.977-3.755-13.854c0-5.761,1.767-11.273,5.109-15.941c0.377-0.527,0.256-1.26-0.271-1.637
			c-0.527-0.377-1.26-0.256-1.637,0.271c-3.629,5.069-5.547,11.054-5.547,17.307c0,5.127,1.322,10.165,3.827,14.606L17.424,75.8
			c-0.114,0.407,0,0.843,0.296,1.143c0.224,0.225,0.525,0.347,0.834,0.347c0.102,0,0.205-0.013,0.306-0.041l14.607-3.947
			c4.253,2.245,9.041,3.429,13.88,3.429c7.95,0,15.425-3.096,21.046-8.718c5.622-5.621,8.718-13.096,8.718-21.046
			C77.111,39.018,74.015,31.544,68.394,25.922L68.394,25.922z M68.394,25.922"/>
	</g>
	<path d="M66.584,61.194c0.539,0.36,1.268,0.215,1.628-0.325c2.75-4.121,4.205-8.928,4.205-13.902
		c0-6.697-2.608-12.993-7.342-17.727c-4.735-4.734-11.03-7.342-17.727-7.342c-6.697,0-12.993,2.608-17.728,7.342
		c-4.735,4.735-7.342,11.031-7.342,17.728c0,4.46,1.187,8.84,3.432,12.666l0.757,1.291l-2.294,8.188
		c-0.114,0.406-0.001,0.843,0.296,1.142c0.297,0.3,0.733,0.417,1.14,0.307l8.453-2.285l1.243,0.683
		c3.666,2.013,7.83,3.076,12.041,3.076c4.974,0,9.781-1.454,13.902-4.205c0.539-0.359,0.684-1.088,0.324-1.627
		c-0.36-0.539-1.088-0.684-1.627-0.325c-3.734,2.493-8.09,3.81-12.599,3.81c-3.817,0-7.591-0.964-10.912-2.787l-1.658-0.91
		c-0.266-0.146-0.578-0.183-0.871-0.104l-6.917,1.869l1.872-6.681c0.086-0.307,0.044-0.636-0.118-0.91l-1.01-1.721
		c-2.034-3.466-3.109-7.435-3.109-11.478c0-12.529,10.194-22.722,22.723-22.722c12.529,0,22.722,10.193,22.722,22.723
		c0,4.508-1.318,8.864-3.81,12.598C65.9,60.106,66.045,60.834,66.584,61.194L66.584,61.194z M66.584,61.194"/>
	<path d="M43.059,43.363l0.077-0.09c1.051-1.18,0.786-2.566,0.378-3.52c-0.603-1.41-2.18-5.013-2.329-5.354
		c-0.233-0.589-1.01-1.521-2.573-1.554c-1.219-0.025-1.619,0.01-1.713,0.021c-0.01,0.001-0.019,0.002-0.028,0.004
		c-0.18,0.026-4.406,0.71-5.136,7.045c-0.336,2.912,1.013,6.382,4.009,10.313c3.316,4.352,6.365,6.943,10.873,9.242
		c2.245,1.145,5.524,2.485,8.577,2.485c0.099,0,0.198-0.001,0.296-0.005c3.429-0.1,5.259-1.525,6.191-2.702
		c0.989-1.25,1.196-2.482,1.226-2.696c0.02-0.136,0.067-0.564,0.098-1.679c0.042-1.563-0.853-2.383-1.429-2.644
		c-0.326-0.162-3.686-1.828-5.064-2.496c-0.93-0.452-2.298-0.709-3.529,0.626c-0.006,0.007-0.012,0.014-0.018,0.02
		c-0.166,0.145-0.331,0.362-0.831,1.031c-0.308,0.412-0.923,1.234-1.184,1.509c-0.552,0.039-2.398-0.774-5.014-2.8
		c-1.649-1.277-3.41-3.265-4.384-4.95c-0.01-0.024-0.016-0.067-0.013-0.089C41.942,44.665,42.599,43.902,43.059,43.363
		L43.059,43.363z M44.497,51.975c0.782,0.606,2.316,1.734,3.798,2.486c0.701,0.355,2.834,1.438,4.149,0.274
		c0.363-0.321,0.879-0.998,1.567-1.92c0.198-0.265,0.442-0.591,0.537-0.704c0.061-0.056,0.112-0.111,0.159-0.161
		c0.211-0.229,0.308-0.334,0.778-0.105c1.414,0.686,4.941,2.435,5.067,2.497c0.044,0.044,0.111,0.185,0.104,0.467
		c-0.026,0.973-0.064,1.324-0.072,1.39c-0.005,0.024-0.003,0.01-0.005,0.036c-0.014,0.08-0.161,0.866-0.808,1.639
		c-0.912,1.09-2.376,1.672-4.351,1.729c-2.641,0.078-5.665-1.167-7.739-2.225c-4.219-2.152-6.949-4.476-10.072-8.574
		c-2.578-3.383-3.804-6.365-3.544-8.622c0.49-4.249,2.818-4.917,3.131-4.987c0.11-0.007,0.482-0.023,1.367-0.004
		c0.282,0.006,0.42,0.081,0.462,0.126c0.058,0.133,1.713,3.912,2.33,5.357c0.309,0.722,0.119,0.935,0.028,1.037
		c-0.016,0.018-0.031,0.035-0.043,0.049l-0.067,0.079c-0.678,0.794-1.155,1.335-1.418,1.605c-0.866,0.89-0.784,2.123-0.341,2.891
		C40.642,48.292,42.599,50.505,44.497,51.975L44.497,51.975z M44.497,51.975"/>
	<path d="M27.131,27.925c0.282,0,0.565-0.101,0.789-0.305c0.48-0.436,0.515-1.178,0.079-1.658c-0.436-0.48-1.178-0.515-1.658-0.079
		l0,0c-0.479,0.436-0.514,1.178-0.078,1.658C26.494,27.796,26.812,27.925,27.131,27.925L27.131,27.925z M27.131,27.925"/>
	<path d="M63.376,63.076L63.376,63.076c-0.436,0.48-0.401,1.222,0.079,1.658c0.225,0.204,0.507,0.305,0.789,0.305
		c0.319,0,0.637-0.13,0.869-0.385c0.436-0.48,0.401-1.222-0.079-1.658C64.554,62.561,63.812,62.596,63.376,63.076L63.376,63.076z
		 M63.376,63.076"/>
</g>
</svg>
