<?xml version="1.0" encoding="UTF-8"?>
<svg xmlns="http://www.w3.org/2000/svg" xmlns:xlink="http://www.w3.org/1999/xlink" width="304.4" height="228.21" viewBox="0 0 304.4 228.21">
  <defs>
    <clipPath id="a">
      <rect x="-549.84" y="-794.62" width="910.23" height="1166.97" fill="none"></rect>
    </clipPath>
  </defs>
  <title>step3</title>
  <g clip-path="url(#a)">
    <path d="M222.77,95.38c-1.89.52-3.89,1.11-5.91,1.6-1.46.36-2.94.62-4.43.86-1.87.29-3.75.62-5.63.73a27.17,27.17,0,0,1-3.79-.32c-.24,0-.53,0-.71-.07a12.78,12.78,0,0,1-1.17-.92,5.85,5.85,0,0,1,1.31-.37c2.45-.11,4.87.69,7.37,0,1.64-.47,3.42-.43,5.11-.76,1.17-.23,2.28-.74,3.43-1.06a22.84,22.84,0,0,1,2.33-.46c.48-.09,1.11,0,1.4-.26,1.24-1.16,2.52-.42,3.78-.2a1.7,1.7,0,0,1,.84,2.39c-.8,1-1.76,1.85-2.64,2.78-.42.44-.82.91-1.21,1.38-.67.82-1.38,1.61-2,2.48a6.45,6.45,0,0,0-1.15,2.18,15.47,15.47,0,0,1-3.17,6.09,7.07,7.07,0,0,0-1.28,3.2c-.57,3.08-.76,6.34-2.78,9a10.76,10.76,0,0,0-2.21,7.13c.11,2.49-1,4.53-2.17,6.58-.69,1.21-1.27,2.47-2,3.63-.61,1-1.41,1.81-2.11,2.72-1.6,2.1-1.41,4.3-.32,6.53a7.1,7.1,0,0,0,1.13,1.93,2.7,2.7,0,0,0,1.68.59,31.15,31.15,0,0,0,5,0c2.76-.33,5.24.84,7.85,1.24.86.13,1.7.54,1.72,1.68a.57.57,0,0,0,.27.37c1.51,1,1.17,2.31,0,3.7a3.27,3.27,0,0,0-.54,1.64c-.19,1.43-.32,2.86-.43,4.3,0,.27.12.78.25.8,2.08.34,2.84,1.14,2.75,3.17-.11,2.74-.24,5.49-.48,8.24a17.62,17.62,0,0,1-2.74,8c-.07.11-.12.28-.22.33-2.92,1.47-2.75,4.57-3.72,7.06-2.13,5.48-3.31,13.8-6.23,18.93-.94,1.65-1.19,2.6-2.55,4s-17.26,1.1-21,1.26a74.37,74.37,0,0,1-8.44-.19,27.81,27.81,0,0,1-4.32-1.07c-.54-.14-1.1-.22-1.65-.32-1.65-.31-1.79-1.83-2.21-3-1.25-3.47-2.35-7-3.55-10.46-.58-1.68-1.25-3.32-1.92-5a14.26,14.26,0,0,1-1-2.12c-.15-.68.22-1.47.09-2.17a13,13,0,0,0-2.22-5.88,7,7,0,0,1-1.37-3.44,84.68,84.68,0,0,1-.22-8.58c0-1.88.34-3.75.55-5.63,0-.28.12-.7.31-.79,1.74-.89.75-2.26.67-3.47-.07-1-.07-2-.18-2.94a1.38,1.38,0,0,0-.49-.73c-.54-.51-1.37-.89-1.62-1.51-.4-1-.95-2,.1-3.24,2.49-2.85,5.82-3.6,9.27-4.11a23.59,23.59,0,0,1,6.13-.46,3,3,0,0,0,3-1.07,15.39,15.39,0,0,0,2.16-3.3c1.16-2.38-.41-4.19-1.56-6a8.72,8.72,0,0,0-1.95-2.45,42,42,0,0,0-4.7-2.93c-1.39-.77-2.91-1.31-4.28-2.09-2.28-1.29-4.51-2.68-6.73-4.06-.88-.55-1.69-1.23-2.57-1.77-.56-.34-1.22-.53-1.8-.83-.18-.09-.29-.34-.4-.53a38.84,38.84,0,0,1-2.57-4.68,5.43,5.43,0,0,1-.24-3.39c1-3.14,2.8-5.88,5.94-7.35a26.84,26.84,0,0,1,3.57-1.1,1.89,1.89,0,0,0,.4-.15,1.93,1.93,0,0,0-.18-.76c-.48-.77-1-1.53-1.51-2.27s0-1.41.49-2c.09-.12.16-.26.24-.38l-.43-.15a4.07,4.07,0,0,1-1.09-.43c-.74-.57-1.06-1.83-2.38-1.38-.46-1.22-1.56-1.75-2.56-2.4-.11-.07-.12-.34-.12-.52,0-1.39,2.17-2.87,3.55-2.57,1.68.36,3.26.83,5.11.13a8.59,8.59,0,0,1,7.06.32c.33.17.46.76.69,1.15-.4.1-.78.23-1.18.29a1.35,1.35,0,0,1-.62-.17c-2.44-1.2-4.75-.26-7.14.31a9.46,9.46,0,0,1-3.07-.17c-.53,0-1-.31-1.58-.33a1.11,1.11,0,0,0-.82.5.91.91,0,0,0,.26.84,10.28,10.28,0,0,0,2.87,2,18.26,18.26,0,0,0,4,.33c2.34.18,4.68.35,7,.54.79.07,1.58.2,2.37.3l.4,0c-.15.1-.29.28-.43.27-2-.14-4-.38-6-.46-1.64-.07-3.28,0-4.92.09a.67.67,0,0,0-.16.47c.23.29.63.79.77.73,2.1-.9,4.17.24,6.27.08a43.47,43.47,0,0,1,5.34.19c.63,0,1.26.1,1.89.09a1.71,1.71,0,0,0,.6-.25c-.2-.14-.4-.36-.62-.39-.6-.09-1.23-.07-1.83-.17-.19,0-.34-.28-.51-.44.2-.13.41-.39.59-.37,1,.11,2,.29,3,.48.06,0,.09.36.08.55a2.69,2.69,0,0,1-.14.54c.47,0,1,.11,1.42.12.15,0,.31-.16.46-.24-.14-.08-.3-.16-.44-.25s-.27-.22-.41-.33c.18-.08.35-.23.53-.22,1.67.07,3.33.2,5,.22.43,0,.86-.34,1.31-.45.15,0,.35.18.53.28-.15,0-.31.09-.46.15-.4.15-.8.31-1.19.49-.08,0-.12.14-.19.21.1,0,.2.11.29.1.78,0,1.55-.07,2.32-.17.08,0,.16-.44.14-.66s-.19-.3-.29-.44c.22,0,.58,0,.65.17.88,1.81,2.46.51,3.66.84.08,0,.29-.14.29-.19a.94.94,0,0,0-.18-.49,2.72,2.72,0,0,0-.53-.42c.11-.06.22-.17.31-.15.36,0,1,.12,1,.24.12,1.19,1.19,1,1.73,1,2.2,0,4.4-.24,6.59-.46.35,0,.62-.58,1-.66a25.28,25.28,0,0,1,2.75-.39c.15,0,.32.1.48.16a1.29,1.29,0,0,0-.4.16,4.91,4.91,0,0,0-.43.48c.21.08.42.25.62.23,1.5-.14,3-.36,4.51-.47,2.73-.2,5.49-.17,8.18-.59a6.62,6.62,0,0,0,3.23-1.93c1.62-1.6,3-3.41,4.5-5.16a.9.9,0,0,0-.27-.8,12.5,12.5,0,0,0-1.85-.28m-14.06,58.29,0,.21a5.42,5.42,0,0,0-.57,0c-.63.07-1.72-.36-1.05,1.09.11.24-.39.84-.71,1.17-.11.11-.69,0-.84-.22-1-1.34-2-2.7-3-4.1a8.87,8.87,0,0,1-1.12-7.15,3.75,3.75,0,0,1,.55-1.31c1.76-2.07,3.67-4,4.64-6.64.73-2,1.45-4,2-6.05.29-1.08,0-2.32.35-3.39a18.72,18.72,0,0,1,2.49-5.3,12.61,12.61,0,0,0,1.86-7,6.59,6.59,0,0,1,1.44-3.92,46.89,46.89,0,0,0,2.93-4.67c.41-.74,0-1.16-.84-1.08-2.87.24-5.74.51-8.62.69-4.54.29-9.09.52-13.63.76l-10.65.54a19.44,19.44,0,0,1-2.41.11c-1.06-.08-2.11-.41-3.17-.44-3-.1-6.06-.12-9.1-.12-1.82,0-3.64.1-5.46.21-.23,0-.68.48-.64.62a7.85,7.85,0,0,0,3,4.62c1.85,1.17,2.36,2.89,2.54,4.83a15.2,15.2,0,0,0,2.87,7.56,17.82,17.82,0,0,1,2.07,4.64c.6,1.75.29,3.86,2.14,5.09a.5.5,0,0,1,.19.41c-.45,1.63.67,2.69,1.42,3.86,1.42,2.21,3.53,4,3.88,6.89a6.58,6.58,0,0,1-.95,4.24c-1,1.71-2.28,3.23-3.43,4.84a1.44,1.44,0,0,1-1.87.06,3,3,0,0,0-1.6-.91,18.8,18.8,0,0,0-3.82.35c-2.24.43-4.45.95-6.66,1.48-.23.05-.38.39-.57.59a2.42,2.42,0,0,0,.69.29c2.52.21,5,.39,7.55.57,2.25.16,4.5.4,6.76.46,2.56.07,5.12,0,7.68,0,1.26,0,2.52.15,3.78.1,2.2-.09,4.4-.38,6.61-.41,2.67,0,5.34.1,8,.17.59,0,1.18.11,1.76.12,2,0,3.91.09,5.87.07a21.72,21.72,0,0,0,3.22-.25c1.43-.23,2.84-.56,4.25-.92a1.08,1.08,0,0,0,.05-.86,2.11,2.11,0,0,0-1.12-.59c-2.91-.44-5.83-.82-8.75-1.22M222,173.2c-.15-1.3-.26-2.63-.51-3.94a1.26,1.26,0,0,0-.89-.77c-1.68-.05-3.36,0-5,0l-12.75.15c-2.08,0-4.16,0-6.24.1s-3.93.22-5.9.26c-2.88.06-5.77.09-8.65,0-2.69,0-5.37-.19-8.06-.3s-5.49-.3-8.23-.34a4.34,4.34,0,0,0-4.17,2.24,9.74,9.74,0,0,0-.83,4.28c0,3,.34,5.92.59,8.88a5.14,5.14,0,0,0,3.46,4.33,70.7,70.7,0,0,0,7.28,1c1.88.19,3.78.27,5.67.41,2.05.16,4.1.45,6.15.5,3.09.08,6.18,0,9.27,0,2.17,0,4.34.21,6.5.1a47.57,47.57,0,0,0,5.3-.74c3.06-.48,6.14-.93,9.18-1.54.67-.13,1.22-.89,1.83-1.35.22-.16.52-.44.7-.39a2.14,2.14,0,0,0,2.47-1.33,21.65,21.65,0,0,0,2.19-5.3,47.5,47.5,0,0,0,.68-6.28m-57.28-11.5v.14c-.29,0-.59,0-.88-.05-1-.1-1.58.23-1.54,1.29a17.31,17.31,0,0,0,.25,3.23c.08.37.86.83,1.32.83,1.79,0,3.59-.29,5.37-.24,3.26.08,6.51.36,9.77.49a44.83,44.83,0,0,0,7.34.16,91.12,91.12,0,0,1,11-.17c2.95,0,5.9.21,8.84.18s6.16-.2,9.24-.36c1.6-.08,3.37-.09,3.73-2.19a5.31,5.31,0,0,0-.05-3.12,2.85,2.85,0,0,0-2.88-1.19c-2.64.35-5.31.63-8,.81-4.05.27-8.11.47-12.16.63-3,.12-5.9.15-8.85.15s-6.1,0-9.15-.12c-4.44-.13-8.89-.31-13.33-.47m18,36.65c0-.12,0,.36,0,0,2.32,0,24.66-1.25,27.27-1.73,2.41-.45,2.63-.36,4.33-2.22.59-.64,1-3.51,1.22-4.38,0-.16-.6-.79-.86-.75-2,.28-4,.74-6,1-2.41.34-4.83.61-7.26.86-1.8.18-3.61.35-5.42.35-1.66,0-3.32-.28-5-.32-3.16-.06-6.33,0-9.5-.06-2.53-.07-5.07-.22-7.59-.43-2.26-.2-4.5-.62-6.76-.79-3.12-.22-3.18-.08-2.22,3a1.55,1.55,0,0,0,.17.54c.51.63.94,1.52,1.62,1.79a40.45,40.45,0,0,0,7.28,2.37,84.28,84.28,0,0,0,8.72.76m-21.1-84.41c-1.43,0-2.68.86-4.11,2.57a4.8,4.8,0,0,0,0,6.67c.86,1,1.9,1.78,2.84,2.67a8.57,8.57,0,0,0,1.38,1.32c1.32.76,2.73,1.35,4.07,2.08,1.88,1,3.73,2.12,5.6,3.19l1.41.77c-.11-.53-.25-1.06-.31-1.6a13.68,13.68,0,0,0-3.09-7.24,9,9,0,0,1-1.49-3.2c-.54-1.91-.83-3.89-1.3-5.82-.17-.71-.56-1.16-1.44-.6a1.7,1.7,0,0,1-2.4-.17,3.79,3.79,0,0,0-1.17-.64m.05,43.85c-.17.11-.53.2-.6.4-.56,1.51-.54,1.52,1,1.59h.07a34.9,34.9,0,0,0,4,.71c2.59.14,5.19.06,7.78.14,3.42.1,6.84.29,10.26.36,1.87,0,3.74-.13,5.61-.12,3.28,0,6.57.12,9.86.14.68,0,1.36-.22,2-.27,2.37-.19,4.74-.31,7.1-.53,1.43-.13,2.83-.47,4.25-.6,1.76-.16,3.55-.12,5.3-.34a5.25,5.25,0,0,0,1.92-1c.13-.08.1-.42.14-.63a1.64,1.64,0,0,0-.66,0,18.69,18.69,0,0,1-7.51,1.46c-2.9.09-5.81-.11-8.71-.18-2.21-.06-4.41-.13-6.61-.15s-4.65,0-7,0c-3.11,0-6.21.1-9.31.23-1.4.06-2.78.39-4.18.43-.43,0-.88-.55-1.08.28,0-.06,0-.14-.06-.16-.23-.16-.46-.42-.72-.45-4.25-.44-8.51-.85-12.92-1.28m32.66,57.92.07.21c1.67-.46,11.12.38,13.29-2.19.17-.21,2.24-5.22,2.3-5.52-.24.08-2.12,2.17-2.3,2.32-2.39,1.92-6.12,1.47-8.72,1.93a27.59,27.59,0,0,1-5.7.82c-3,.3-6,1-8.86.66a55.68,55.68,0,0,1-10.89-2.6c-1.3-.42-2.28-1.86-3.42-2.82a2.85,2.85,0,0,0-.57-.31,2.14,2.14,0,0,0,0,.62c.42,1.25.79,2.52,1.32,3.72s1.15,2.21,2.69,2.17a4.29,4.29,0,0,1,1.15.34c1.76.47,3.42,1.17,5.38.95s3.73.29,5.6.24c2.89-.08,5.77-.35,8.65-.54m5.42-9,.22.07a22.09,22.09,0,0,1-.66,2.14c-.11.27-.52.63-.73.6s-.53-.43-.76-.7a3.55,3.55,0,0,1-.38-.62,4.78,4.78,0,0,1-.25.84,3.65,3.65,0,0,1-.77,1.37,7.58,7.58,0,0,1-1.58.58c-.19.09-.27.42-.39.64.24.08.5.25.73.21.53-.07,1-.24,1.57-.36,3.08-.73,6.58,0,9.29-1.81,1.4-.93,2.7-3,3.64-4.34,1.21-1.67,1.83-3.78,2.69-5.71,0-.08,0-.2-.06-.3l-.28.2c-1.24.88-2.48,1.76-3.7,2.67a3.25,3.25,0,0,0-1,1c-.63,1.13-1.19,1.32-2.34.68-1-.54-1.41-.3-1.63.77a6.59,6.59,0,0,1-.67,2c-.58,1-1.21,1-1.84,0a5.5,5.5,0,0,0-.74-.79c-.12.33-.25.65-.37,1m-26.67-71.47a2.49,2.49,0,0,0-.31-.23l-2.22-1.26-6.78-3.84a28.14,28.14,0,0,1-3.77-2.2,37.59,37.59,0,0,1-3.23-3.32,2.92,2.92,0,0,0-.61-.4,2.2,2.2,0,0,0,.32.8c.57.56,1.22,1,1.8,1.58a24.13,24.13,0,0,0,2.78,2.76,56.93,56.93,0,0,0,5.66,3.31c2,1,4,1.95,6.06,2.91a1.91,1.91,0,0,0,.28.07l0-.18m-19.32-14.18c.31.71.69,1.66,1.14,2.57.1.2.44.29.67.42.1-.32.4-.8.28-.95-1.42-1.79-1.23-3.67-.37-5.57.38-.84.91-1.6,1.36-2.4a1.47,1.47,0,0,0,.08-.3c-.09,0-.21,0-.26.05a9.63,9.63,0,0,0-2.9,6.18m32.91,78.69-.46.28c.21.15.4.41.63.45a28.89,28.89,0,0,0,3.46.41c.33,0,.67-.47,1-.73-.28-.2-.56-.57-.84-.57-1.24,0-2.47.09-3.8.16m-24.82-87.68c-.76.18-1.25.25-1.73.41a4.14,4.14,0,0,0-.75.45,2.23,2.23,0,0,0,.88.06c1-.37,1.87-.73,2.72.3.21.27.73.3,1.11.39.13,0,.29-.07.43-.12-.06-.16-.08-.41-.19-.46-.87-.39-1.76-.74-2.47-1" fill="#231f20"></path>
    <path d="M84.8,114.48c3.26.37,6.5.93,9.77,1,2.22.08,4.55,1.19,6.67-.19a2.28,2.28,0,0,0,.84-2c-.73-2.82-2.81-4.72-5-6.49s-4.12-3.53-6.34-5.07c-2.77-1.92-5.66-3.68-8.58-5.35s-5.65-3-8.54-4.45c-3.72-1.8-7.49-3.52-11.27-5.22-1.64-.73-3.38-1.24-5-2S54.47,83.26,53,82.58c-1-.46-2.1-.7-3.13-1.1-2.86-1.08-5.68-2.26-8.56-3.27-4.41-1.55-8.82-3.06-13.27-4.46-3-1-6.09-1.69-9.14-2.5-1.32-.36-2.65-.68-4-1a1.23,1.23,0,0,1-.35-.26c.16,0,.34-.13.48-.1l6.17,1.31c2.3.5,4.62.91,6.88,1.55,2.85.81,5.65,1.83,8.49,2.74,1.65.53,3.34.94,5,1.52,2,.73,4,1.6,6.05,2.39,1.69.66,3.42,1.25,5.09,2,2.2.92,4.35,2,6.53,2.89,2.63,1.13,5.28,2.22,7.92,3.33s5.13,2.08,7.61,3.28c2.93,1.42,5.8,3,8.64,4.56,2.53,1.42,5,2.87,7.44,4.5a95.39,95.39,0,0,1,7.9,5.95,41.54,41.54,0,0,1,4.06,4.5,1.51,1.51,0,0,1,.18.26l.9,1.58c.48-.86,1-1.71,1.44-2.57.18-.33.32-.68.47-1a.92.92,0,0,0,.15-.36c0-1.48,1.17-2.44,1.63-3.71s1-2.76,1.51-4.15a42.83,42.83,0,0,0,1.86-6.14c.71-4.2,1.28-8.43,1.61-12.67a33,33,0,0,0-.57-6.15c-.24-2.06.65-3.7,1.74-5.35,1.4-2.14,2.66-4.38,4-6.59a16.89,16.89,0,0,0,.8-1.66,36.9,36.9,0,0,0,2.71-11.52,24,24,0,0,0-.46-4.26,17.62,17.62,0,0,0,0-2.4c-.57-2.49.88-4.16,2.2-5.91a42.73,42.73,0,0,0,5.44-9.86c1.84-4.55,1.5-9.29,1.16-14A57.87,57.87,0,0,0,128.39,7c-.25-1.32.31-2.36,1.5-2.44.18,0,.53.19.54.32.2,2.28.43,4.55.51,6.83.12,3.63.71,7.25.06,10.92a44,44,0,0,1-4.57,12.21c-1.09,2.15-2.83,4-3.82,6.19-.53,1.17-.15,2.78-.1,4.18a27.47,27.47,0,0,1,.28,3.7c-.58,5-1.44,9.93-3.6,14.53-1,2.19-2.11,4.34-3.17,6.5-.69,1.38-1.41,2.75-2.08,4.13a1.88,1.88,0,0,0-.06.79c.12,3,.35,6,.33,8.94a30.53,30.53,0,0,1-.69,4.72c-.27,1.57.4,2.52,2,3,3.94,1.27,7.75.64,11.5-.79a20.27,20.27,0,0,0,3.7-1.68A26.17,26.17,0,0,0,134,86.31,17.39,17.39,0,0,0,136.35,84c1.19-1.59,2.2-3.32,3.37-4.93,1.95-2.68,4.05-5.24,5.92-8,2.22-3.22,5.3-5.52,8.26-7.9a33.54,33.54,0,0,1,6.63-3.72,40.93,40.93,0,0,1,5.26-1.85A25.45,25.45,0,0,1,171,56.18a47.45,47.45,0,0,1,6.4.26c1.07.05,2.14.06,3.2.19s2.56-.1,2.94,1.55c0,0,0,.12.09.13,1.48.3,1.75,2,3,2.56.39.18.88.15,1.25.35a5.34,5.34,0,0,1,1.79,1.19,13.1,13.1,0,0,1,2.52,7.4q.57,9.41,1.08,18.81c.13,2.42.19,4.85.26,7.28,0,.77.4,1,1.1,1a1.8,1.8,0,0,1,.67.3c-.21.31-.36.81-.65.91a11.85,11.85,0,0,1-2.63.62c-.37,0-.78-.3-1.17-.47.22-.33.43-.67.66-1s.64-.65.65-1c.06-2.49.1-5,0-7.46-.12-3-.35-6.05-.59-9.07-.16-2-.47-4-.62-6.06-.1-1.41,0-2.84-.06-4.25a13.63,13.63,0,0,0-.46-2.34c0-.12-.18-.22-.28-.34-.07.14-.19.27-.19.41.05,1.46.11,2.93.19,4.39.15,2.76.43,5.52.43,8.28,0,4.76-.18,9.52-.25,14.28,0,.54.24,1.09.26,1.65a1.48,1.48,0,0,1-.28,1.06c-.24.22-.95.33-1,.19a2.16,2.16,0,0,1-.38-1.31c.07-1.88.24-3.75.33-5.63.1-2.28.24-4.57.21-6.85-.06-4.25-.22-8.5-.38-12.75a19.6,19.6,0,0,0-.35-3.84,2.53,2.53,0,0,0-1.4-1.44,9.21,9.21,0,0,0-2.2-.18c-2.54-.37-5.07-.88-7.63-1.14a17.08,17.08,0,0,0-4.15.26,37,37,0,0,0-5.66,1.1,68.46,68.46,0,0,0-8.51,3.19,10.58,10.58,0,0,0-3.43,3c-3.1,3.78-6.11,7.63-9.08,11.53-1.26,1.66-2.19,3.59-3.49,5.23-2.61,3.31-5.31,6.61-9.23,8.48A50.7,50.7,0,0,1,128,98.85a17.47,17.47,0,0,1-4.62,1.23c-3.55.17-7.19.39-10.56-1-1.42-.56-1.51.05-1.87,1-1.39,3.58-2.71,7.19-4.3,10.67-.58,1.29-.86,2.93-2.43,3.67-.3.15-.42.77-.54,1.2a2.49,2.49,0,0,1-2.94,1.86c-2.7-.23-5.39-.62-8.09-.83-1.26-.1-2.54.06-3.81.07a10.14,10.14,0,0,1-1.06-.17c-1.92-.2-3.86-.28-5.75-.62-2.55-.46-5.07-1.09-7.6-1.68s-5.09-1.18-7.61-1.86c-2-.55-4-1.25-6.06-1.83-3-.87-6.07-1.62-9.06-2.58s-5.92-2.15-8.9-3.15c-1.75-.59-3.62-.86-5.32-1.56-3.38-1.4-6.67-3-10-4.51-.9-.4-1.88-.63-2.75-1.09-3-1.56-5.88-3.2-8.82-4.8-2.29-1.25-4.6-2.48-6.9-3.73-.46-.26-.93-.52-1.36-.82-.14-.1-.16-.35-.23-.54.24-.06.52-.25.69-.17,1.8.75,3.62,1.47,5.35,2.34,2.82,1.42,5.56,3,8.38,4.41,4,2,8.08,4,12.18,5.85,1.8.82,3.75,1.31,5.62,2,2.82,1,5.61,2.06,8.45,3,2.63.88,5.3,1.66,8,2.45,2.81.83,5.62,1.64,8.44,2.41a26.26,26.26,0,0,0,3.09.55c1.72.24,3.44.48,5.16.67,2.87.32,5.74.65,8.62.86,1.17.08,2.65.23,3.49-.36,1.24-.87,2.57-.74,3.83-1.16,2.24-.73,2.15-1,.61-2.78-2.14-2.51-5-4-7.56-5.91a66.93,66.93,0,0,0-9.21-5.54c-2.55-1.4-5-3-7.56-4.32-1.94-1-4-1.7-6-2.5-2.76-1.09-5.52-2.14-8.28-3.2-1.94-.76-3.87-1.55-5.84-2.25-2.14-.77-4.32-1.43-6.48-2.15-1.25-.41-2.48-.83-3.72-1.27-.13,0-.22-.26-.32-.39.17-.06.37-.22.52-.18,2.76.77,5.53,1.51,8.26,2.36,2,.64,4.05,1.4,6.05,2.17,3.92,1.51,7.86,3,11.73,4.65,3.3,1.41,6.6,2.89,9.76,4.6,4.11,2.22,8.09,4.68,12.11,7.09a36.64,36.64,0,0,1,9.06,7.59,1.71,1.71,0,0,1-1,2.89c-2.9.8-5.86,1.42-8.82,1.93a12.59,12.59,0,0,1-3.19-.31c-.17,0-.36.14-.54.22.15.13.29.33.45.36,2,.36,4.07.7,6.11,1l0-.25M184.7,63.6l.39-.15a3.85,3.85,0,0,0-.38-.52c-.4-.39-.83-.76-1.24-1.14l-3-2.66c-.4-.34-.76-.9-1.21-1-4.09-.75-8.17-1-12.19.48-1.64.62-3.49.76-5.05,1.51a44.31,44.31,0,0,0-7.17,4.21,45.86,45.86,0,0,0-6.8,6.19,96.77,96.77,0,0,0-6.77,8.82c-1.91,2.7-3.42,5.61-5.88,8a20.28,20.28,0,0,1-8.69,5.38c-4,1.11-7.89,1.77-11.9.4a16.31,16.31,0,0,1-1.84-.88c-.08.69-.13,1.4-.26,2.08-.54,2.94-.59,3.17,2.3,3.71a29.75,29.75,0,0,0,8,.46c2.19-.2,4.28-1.29,6.43-1.91a16.05,16.05,0,0,0,8.09-4.78c1.42-1.65,3-3.18,4.31-4.87,1.15-1.47,2.06-3.13,3.16-4.64,1.9-2.61,3.86-5.17,5.8-7.75.7-.93,1.38-1.89,2.16-2.76s1.52-1.28,2.16-2a13.52,13.52,0,0,1,6.11-4c3.11-1,6.1-2.43,9.47-2.61s6.64-1.26,10-.21a30.79,30.79,0,0,0,3.91.66" fill="#231f20"></path>
    <path d="M41.87,93.42a12.43,12.43,0,0,1-2,.14c-.29,0-.55-.42-.83-.65.21-.25.4-.69.62-.7a29.43,29.43,0,0,1,4.6,0,21.88,21.88,0,0,1,5.48,1.13,66.14,66.14,0,0,1,6.67,3.37c1.56.83,3.13,1.65,4.64,2.56a34.55,34.55,0,0,1,4.84,3.28c.67.59.76,1.84,1.08,2.8,0,.06-.23.23-.38.32-3.1,2-6.23,1.44-9.36.07-2.45-1.07-5-2-7.35-3.21q-6.18-3-12.24-6.33A8.78,8.78,0,0,1,35.4,94a1.58,1.58,0,0,1-.28-1.17c0-.23.47-.48.76-.57a1,1,0,0,1,.67.29c-.2,1.53,1.29,1.78,2,2.54a11.28,11.28,0,0,0,2.69,1.67A18.55,18.55,0,0,1,43.59,98c3.09,2.31,6.72,3.51,10.2,5a51.27,51.27,0,0,0,4.84,2.22,14.44,14.44,0,0,0,3.74.22c0-.18,0-.37-.08-.55l-.12-.83c.25.05.51.11.76.14l2.06.25c0-.39.2-1,0-1.14a17.39,17.39,0,0,0-2.27-1.59c-1.79-1.13-3.55-2.32-5.42-3.3a64.38,64.38,0,0,0-8.47-4.05c-2.18-.76-4.63-.76-7-1.09l0,.13" fill="#231f20"></path>
    <path d="M184.87,98.61c-.54.18-1,.46-1.33.41a13.65,13.65,0,0,1-2.59-.58c-2-.65-3.8.23-5.61.94a10.88,10.88,0,0,1-2.61.59c-.26,0-.58-.31-.87-.49.24-.3.43-.76.75-.87,1.86-.68,3.75-1.28,5.63-1.9,0,0,.1-.06.15,0,2,.4,4.12-.44,5.88,1a4.35,4.35,0,0,1,.6.94" fill="#231f20"></path>
    <path d="M12,76.25c3,.22,6,.3,9,.7,2.27.3,4.49,1,6.73,1.51.93.23,1.86.47,2.78.74.14,0,.22.25.32.39a1.47,1.47,0,0,1-.5.07c-2.4-.43-4.79-1-7.21-1.29-3.56-.49-7.15-.84-10.72-1.23a10.33,10.33,0,0,1-1.12,0c-.27-.06-.49-.33-.73-.5a4.83,4.83,0,0,1,.77-.29,3,3,0,0,1,.72.05v-.12" fill="#231f20"></path>
    <path d="M186.08,97.38c.59.25,1,.48,1.53.64.15,0,.36-.08.55-.12a2.59,2.59,0,0,1,1.05-.23,3,3,0,0,1,1,.63c-.28.32-.55.91-.84.92a21.32,21.32,0,0,1-3.47-.25c-.27,0-.62-.53-.66-.84s.49-.44.88-.75" fill="#231f20"></path>
    <path d="M200.56,97.6c-.68.36-1,.67-1.34.66a9.08,9.08,0,0,1-2.14-.32,2,2,0,0,1-.91-.62.7.7,0,0,1,.14-.68,2.22,2.22,0,0,1,1.08-.2,9.14,9.14,0,0,1,1.88.25,6.14,6.14,0,0,1,1.29.91" fill="#231f20"></path>
    <polygon points="184.93 199.61 197.84 197.88 213.43 198.49 210.78 204.91 207.76 210.53 193.34 213.28 184.93 199.61" fill="#231f20"></polygon>
  </g>
  <g style="isolation:isolate">
    <g style="isolation:isolate">
      <path d="M60,174.25H45.49c-.15-.08-.2-.32-.16-.73a4.68,4.68,0,0,1,.35-1.37c.2-.51.38-.79.56-.85H60.56c.18.07.26.31.25.72a4.47,4.47,0,0,1-.31,1.35A1.71,1.71,0,0,1,60,174.25Zm1.23-8.4H46.72c-.14-.07-.2-.31-.17-.72a4.73,4.73,0,0,1,.33-1.38q.28-.75.54-.84H61.75c.18.07.26.31.25.71a4,4,0,0,1-.28,1.35C61.53,165.47,61.36,165.76,61.18,165.85Zm-8.35-8.3-3.52,21.62c0,.1-.18.22-.46.36a1.87,1.87,0,0,1-.85.21,1.25,1.25,0,0,1-.32,0,.32.32,0,0,1-.15-.09l0-.05L51,158c.14-.38.56-.57,1.28-.57A1,1,0,0,1,52.83,157.55Zm7.08,0-3.48,21.62c0,.1-.18.22-.47.36a2,2,0,0,1-.89.21,1.32,1.32,0,0,1-.32,0c-.08,0-.13-.06-.14-.09l0-.05L58.06,158c.13-.38.56-.57,1.27-.57A1.06,1.06,0,0,1,59.91,157.55Z" fill="#c7603d"></path>
      <path d="M79.48,152.54a6.55,6.55,0,0,1,1.38.15,6.09,6.09,0,0,1,1.45.55,5.27,5.27,0,0,1,1.34,1,4.66,4.66,0,0,1,.95,1.62,6.41,6.41,0,0,1,.38,2.26,5.31,5.31,0,0,1-.6,2.48,5.74,5.74,0,0,1-1.5,1.91,11.79,11.79,0,0,1-1.75,1.21,7.79,7.79,0,0,1-1.56.68,6,6,0,0,1,3.64,1.94,5.54,5.54,0,0,1,1.63,4,8.93,8.93,0,0,1-1.18,4.5,10.58,10.58,0,0,1-3,3.38,15.43,15.43,0,0,1-3.9,2,12,12,0,0,1-4,.73,10.3,10.3,0,0,1-5.93-1.49,2,2,0,0,1-.4-1.32,2.82,2.82,0,0,1,.81-2.27,2.76,2.76,0,0,1,1.78-.68,2.28,2.28,0,0,1,.7.11,3.09,3.09,0,0,1,.51.24,1.72,1.72,0,0,1,.39.41,4.44,4.44,0,0,1,.26.43l.23.49c.1.23.17.37.2.43a4.1,4.1,0,0,0,1.2,1.4,2.59,2.59,0,0,0,1.57.58,4.27,4.27,0,0,0,3.49-2.24,10.18,10.18,0,0,0,1.52-5.8,5.37,5.37,0,0,0-.94-3.46A3.78,3.78,0,0,0,75,166.64a7.8,7.8,0,0,0-1.89.27,1.6,1.6,0,0,1-.17-.79,1.15,1.15,0,0,1,.17-.62,9.73,9.73,0,0,0,2.28-.56,11,11,0,0,0,2.2-1.1,5.38,5.38,0,0,0,1.69-1.7,4.13,4.13,0,0,0,.65-2.22,4,4,0,0,0-1-2.9,3.22,3.22,0,0,0-2.43-1,3.8,3.8,0,0,0-1.4.28,5.58,5.58,0,0,0-1.33.75,13.38,13.38,0,0,0-1.06.88c-.3.28-.58.56-.83.84l-.43.46a.82.82,0,0,1-.57-.35,1,1,0,0,1-.31-.66,12.41,12.41,0,0,1,3.76-3.79A8.81,8.81,0,0,1,79.48,152.54Z" fill="#c7603d"></path>
    </g>
    <g style="isolation:isolate">
      <path d="M60,174.25H45.49c-.15-.08-.2-.32-.16-.73a4.68,4.68,0,0,1,.35-1.37c.2-.51.38-.79.56-.85H60.56c.18.07.26.31.25.72a4.47,4.47,0,0,1-.31,1.35A1.71,1.71,0,0,1,60,174.25Zm1.23-8.4H46.72c-.14-.07-.2-.31-.17-.72a4.73,4.73,0,0,1,.33-1.38q.28-.75.54-.84H61.75c.18.07.26.31.25.71a4,4,0,0,1-.28,1.35C61.53,165.47,61.36,165.76,61.18,165.85Zm-8.35-8.3-3.52,21.62c0,.1-.18.22-.46.36a1.87,1.87,0,0,1-.85.21,1.25,1.25,0,0,1-.32,0,.32.32,0,0,1-.15-.09l0-.05L51,158c.14-.38.56-.57,1.28-.57A1,1,0,0,1,52.83,157.55Zm7.08,0-3.48,21.62c0,.1-.18.22-.47.36a2,2,0,0,1-.89.21,1.32,1.32,0,0,1-.32,0c-.08,0-.13-.06-.14-.09l0-.05L58.06,158c.13-.38.56-.57,1.27-.57A1.06,1.06,0,0,1,59.91,157.55Z" fill="none" stroke="#c7603d" stroke-miterlimit="10" stroke-width="0.25"></path>
      <path d="M79.48,152.54a6.55,6.55,0,0,1,1.38.15,6.09,6.09,0,0,1,1.45.55,5.27,5.27,0,0,1,1.34,1,4.66,4.66,0,0,1,.95,1.62,6.41,6.41,0,0,1,.38,2.26,5.31,5.31,0,0,1-.6,2.48,5.74,5.74,0,0,1-1.5,1.91,11.79,11.79,0,0,1-1.75,1.21,7.79,7.79,0,0,1-1.56.68,6,6,0,0,1,3.64,1.94,5.54,5.54,0,0,1,1.63,4,8.93,8.93,0,0,1-1.18,4.5,10.58,10.58,0,0,1-3,3.38,15.43,15.43,0,0,1-3.9,2,12,12,0,0,1-4,.73,10.3,10.3,0,0,1-5.93-1.49,2,2,0,0,1-.4-1.32,2.82,2.82,0,0,1,.81-2.27,2.76,2.76,0,0,1,1.78-.68,2.28,2.28,0,0,1,.7.11,3.09,3.09,0,0,1,.51.24,1.72,1.72,0,0,1,.39.41,4.44,4.44,0,0,1,.26.43l.23.49c.1.23.17.37.2.43a4.1,4.1,0,0,0,1.2,1.4,2.59,2.59,0,0,0,1.57.58,4.27,4.27,0,0,0,3.49-2.24,10.18,10.18,0,0,0,1.52-5.8,5.37,5.37,0,0,0-.94-3.46A3.78,3.78,0,0,0,75,166.64a7.8,7.8,0,0,0-1.89.27,1.6,1.6,0,0,1-.17-.79,1.15,1.15,0,0,1,.17-.62,9.73,9.73,0,0,0,2.28-.56,11,11,0,0,0,2.2-1.1,5.38,5.38,0,0,0,1.69-1.7,4.13,4.13,0,0,0,.65-2.22,4,4,0,0,0-1-2.9,3.22,3.22,0,0,0-2.43-1,3.8,3.8,0,0,0-1.4.28,5.58,5.58,0,0,0-1.33.75,13.38,13.38,0,0,0-1.06.88c-.3.28-.58.56-.83.84l-.43.46a.82.82,0,0,1-.57-.35,1,1,0,0,1-.31-.66,12.41,12.41,0,0,1,3.76-3.79A8.81,8.81,0,0,1,79.48,152.54Z" fill="none" stroke="#c7603d" stroke-miterlimit="10" stroke-width="0.25"></path>
    </g>
  </g>
</svg>
